<svg width="308" height="101" viewBox="0 0 308 101" fill="none" xmlns="http://www.w3.org/2000/svg">
<path d="M128.736 18.2H134.352L145.8 47H140.004L137.304 39.944H125.856L123.156 47H117.36L128.736 18.2ZM135.396 35.012L131.58 25.04L127.728 35.012H135.396ZM158.005 47.396C155.797 47.396 153.853 46.976 152.173 46.136C150.517 45.296 149.221 44.132 148.285 42.644C147.373 41.156 146.917 39.452 146.917 37.532H152.713C152.713 38.468 152.917 39.308 153.325 40.052C153.757 40.796 154.369 41.372 155.161 41.78C155.953 42.188 156.889 42.392 157.969 42.392C158.761 42.392 159.481 42.272 160.129 42.032C160.777 41.768 161.281 41.396 161.641 40.916C162.001 40.412 162.181 39.824 162.181 39.152C162.181 38.504 162.025 37.952 161.713 37.496C161.401 37.04 160.969 36.644 160.417 36.308C159.865 35.972 159.121 35.6 158.185 35.192C157.921 35.072 157.717 34.988 157.573 34.94C157.429 34.892 157.225 34.808 156.961 34.688C156.673 34.568 156.397 34.448 156.133 34.328C154.093 33.512 152.509 32.792 151.381 32.168C150.253 31.52 149.329 30.692 148.609 29.684C147.889 28.676 147.529 27.416 147.529 25.904C147.529 24.224 147.961 22.772 148.825 21.548C149.713 20.324 150.901 19.4 152.389 18.776C153.877 18.128 155.497 17.804 157.249 17.804C159.193 17.804 160.873 18.188 162.289 18.956C163.729 19.724 164.833 20.792 165.601 22.16C166.369 23.528 166.753 25.1 166.753 26.876H161.173C161.173 26.084 161.005 25.388 160.669 24.788C160.333 24.164 159.853 23.684 159.229 23.348C158.629 23.012 157.933 22.844 157.141 22.844C156.037 22.844 155.125 23.144 154.405 23.744C153.685 24.344 153.325 25.064 153.325 25.904C153.325 26.504 153.529 27.02 153.937 27.452C154.345 27.884 154.897 28.268 155.593 28.604C156.313 28.916 157.357 29.324 158.725 29.828C159.253 29.996 159.649 30.14 159.913 30.26C161.713 30.932 163.177 31.616 164.305 32.312C165.457 33.008 166.357 33.896 167.005 34.976C167.677 36.032 168.013 37.34 168.013 38.9C168.013 40.652 167.581 42.176 166.717 43.472C165.877 44.744 164.689 45.716 163.153 46.388C161.641 47.06 159.925 47.396 158.005 47.396ZM181.981 47.396C179.773 47.396 177.829 46.976 176.149 46.136C174.493 45.296 173.197 44.132 172.261 42.644C171.349 41.156 170.893 39.452 170.893 37.532H176.689C176.689 38.468 176.893 39.308 177.301 40.052C177.733 40.796 178.345 41.372 179.137 41.78C179.929 42.188 180.865 42.392 181.945 42.392C182.737 42.392 183.457 42.272 184.105 42.032C184.753 41.768 185.257 41.396 185.617 40.916C185.977 40.412 186.157 39.824 186.157 39.152C186.157 38.504 186.001 37.952 185.689 37.496C185.377 37.04 184.945 36.644 184.393 36.308C183.841 35.972 183.097 35.6 182.161 35.192C181.897 35.072 181.693 34.988 181.549 34.94C181.405 34.892 181.201 34.808 180.937 34.688C180.649 34.568 180.373 34.448 180.109 34.328C178.069 33.512 176.485 32.792 175.357 32.168C174.229 31.52 173.305 30.692 172.585 29.684C171.865 28.676 171.505 27.416 171.505 25.904C171.505 24.224 171.937 22.772 172.801 21.548C173.689 20.324 174.877 19.4 176.365 18.776C177.853 18.128 179.473 17.804 181.225 17.804C183.169 17.804 184.849 18.188 186.265 18.956C187.705 19.724 188.809 20.792 189.577 22.16C190.345 23.528 190.729 25.1 190.729 26.876H185.149C185.149 26.084 184.981 25.388 184.645 24.788C184.309 24.164 183.829 23.684 183.205 23.348C182.605 23.012 181.909 22.844 181.117 22.844C180.013 22.844 179.101 23.144 178.381 23.744C177.661 24.344 177.301 25.064 177.301 25.904C177.301 26.504 177.505 27.02 177.913 27.452C178.321 27.884 178.873 28.268 179.569 28.604C180.289 28.916 181.333 29.324 182.701 29.828C183.229 29.996 183.625 30.14 183.889 30.26C185.689 30.932 187.153 31.616 188.281 32.312C189.433 33.008 190.333 33.896 190.981 34.976C191.653 36.032 191.989 37.34 191.989 38.9C191.989 40.652 191.557 42.176 190.693 43.472C189.853 44.744 188.665 45.716 187.129 46.388C185.617 47.06 183.901 47.396 181.981 47.396ZM196.31 18.2H201.926V47H196.31V18.2ZM217.348 47.396C215.14 47.396 213.196 46.976 211.516 46.136C209.86 45.296 208.564 44.132 207.628 42.644C206.716 41.156 206.26 39.452 206.26 37.532H212.056C212.056 38.468 212.26 39.308 212.668 40.052C213.1 40.796 213.712 41.372 214.504 41.78C215.296 42.188 216.232 42.392 217.312 42.392C218.104 42.392 218.824 42.272 219.472 42.032C220.12 41.768 220.624 41.396 220.984 40.916C221.344 40.412 221.524 39.824 221.524 39.152C221.524 38.504 221.368 37.952 221.056 37.496C220.744 37.04 220.312 36.644 219.76 36.308C219.208 35.972 218.464 35.6 217.528 35.192C217.264 35.072 217.06 34.988 216.916 34.94C216.772 34.892 216.568 34.808 216.304 34.688C216.016 34.568 215.74 34.448 215.476 34.328C213.436 33.512 211.852 32.792 210.724 32.168C209.596 31.52 208.672 30.692 207.952 29.684C207.232 28.676 206.872 27.416 206.872 25.904C206.872 24.224 207.304 22.772 208.168 21.548C209.056 20.324 210.244 19.4 211.732 18.776C213.22 18.128 214.84 17.804 216.592 17.804C218.536 17.804 220.216 18.188 221.632 18.956C223.072 19.724 224.176 20.792 224.944 22.16C225.712 23.528 226.096 25.1 226.096 26.876H220.516C220.516 26.084 220.348 25.388 220.012 24.788C219.676 24.164 219.196 23.684 218.572 23.348C217.972 23.012 217.276 22.844 216.484 22.844C215.38 22.844 214.468 23.144 213.748 23.744C213.028 24.344 212.668 25.064 212.668 25.904C212.668 26.504 212.872 27.02 213.28 27.452C213.688 27.884 214.24 28.268 214.936 28.604C215.656 28.916 216.7 29.324 218.068 29.828C218.596 29.996 218.992 30.14 219.256 30.26C221.056 30.932 222.52 31.616 223.648 32.312C224.8 33.008 225.7 33.896 226.348 34.976C227.02 36.032 227.356 37.34 227.356 38.9C227.356 40.652 226.924 42.176 226.06 43.472C225.22 44.744 224.032 45.716 222.496 46.388C220.984 47.06 219.268 47.396 217.348 47.396ZM237.129 23.132H228.849V18.2H250.953V23.132H242.781V47H237.129V23.132ZM254.564 18.2H260.18V47H254.564V18.2ZM265.954 18.2H278.806C280.63 18.2 282.25 18.572 283.666 19.316C285.082 20.06 286.186 21.092 286.978 22.412C287.77 23.732 288.166 25.244 288.166 26.948C288.166 28.244 287.89 29.468 287.338 30.62C286.81 31.748 286.066 32.72 285.106 33.536C284.146 34.328 283.03 34.916 281.758 35.3L289.606 47H283.198L275.71 35.732H271.57V47H265.954V18.2ZM278.698 30.692C279.418 30.692 280.054 30.536 280.606 30.224C281.182 29.912 281.626 29.468 281.938 28.892C282.25 28.316 282.406 27.668 282.406 26.948C282.406 26.228 282.25 25.592 281.938 25.04C281.626 24.464 281.182 24.02 280.606 23.708C280.054 23.396 279.418 23.24 278.698 23.24H271.57V30.692H278.698ZM119.88 54.2H132.732C134.556 54.2 136.176 54.572 137.592 55.316C139.008 56.06 140.112 57.092 140.904 58.412C141.696 59.732 142.092 61.244 142.092 62.948C142.092 64.244 141.816 65.468 141.264 66.62C140.736 67.748 139.992 68.72 139.032 69.536C138.072 70.328 136.956 70.916 135.684 71.3L143.532 83H137.124L129.636 71.732H125.496V83H119.88V54.2ZM132.624 66.692C133.344 66.692 133.98 66.536 134.532 66.224C135.108 65.912 135.552 65.468 135.864 64.892C136.176 64.316 136.332 63.668 136.332 62.948C136.332 62.228 136.176 61.592 135.864 61.04C135.552 60.464 135.108 60.02 134.532 59.708C133.98 59.396 133.344 59.24 132.624 59.24H125.496V66.692H132.624ZM146.81 54.2H167.15V59.204H152.426V65.576H164.99V70.616H152.426V77.996H167.15V83H146.81V54.2ZM172.228 54.2H192.568V59.204H177.844V65.576H190.408V70.616H177.844V77.996H192.568V83H172.228V54.2ZM197.646 54.2H203.262V77.96H218.022V83H197.646V54.2ZM231.27 83.396C229.062 83.396 227.118 82.976 225.438 82.136C223.782 81.296 222.486 80.132 221.55 78.644C220.638 77.156 220.182 75.452 220.182 73.532H225.978C225.978 74.468 226.182 75.308 226.59 76.052C227.022 76.796 227.634 77.372 228.426 77.78C229.218 78.188 230.154 78.392 231.234 78.392C232.026 78.392 232.746 78.272 233.394 78.032C234.042 77.768 234.546 77.396 234.906 76.916C235.266 76.412 235.446 75.824 235.446 75.152C235.446 74.504 235.29 73.952 234.978 73.496C234.666 73.04 234.234 72.644 233.682 72.308C233.13 71.972 232.386 71.6 231.45 71.192C231.186 71.072 230.982 70.988 230.838 70.94C230.694 70.892 230.49 70.808 230.226 70.688C229.938 70.568 229.662 70.448 229.398 70.328C227.358 69.512 225.774 68.792 224.646 68.168C223.518 67.52 222.594 66.692 221.874 65.684C221.154 64.676 220.794 63.416 220.794 61.904C220.794 60.224 221.226 58.772 222.09 57.548C222.978 56.324 224.166 55.4 225.654 54.776C227.142 54.128 228.762 53.804 230.514 53.804C232.458 53.804 234.138 54.188 235.554 54.956C236.994 55.724 238.098 56.792 238.866 58.16C239.634 59.528 240.018 61.1 240.018 62.876H234.438C234.438 62.084 234.27 61.388 233.934 60.788C233.598 60.164 233.118 59.684 232.494 59.348C231.894 59.012 231.198 58.844 230.406 58.844C229.302 58.844 228.39 59.144 227.67 59.744C226.95 60.344 226.59 61.064 226.59 61.904C226.59 62.504 226.794 63.02 227.202 63.452C227.61 63.884 228.162 64.268 228.858 64.604C229.578 64.916 230.622 65.324 231.99 65.828C232.518 65.996 232.914 66.14 233.178 66.26C234.978 66.932 236.442 67.616 237.57 68.312C238.722 69.008 239.622 69.896 240.27 70.976C240.942 72.032 241.278 73.34 241.278 74.9C241.278 76.652 240.846 78.176 239.982 79.472C239.142 80.744 237.954 81.716 236.418 82.388C234.906 83.06 233.19 83.396 231.27 83.396Z" fill="#FC0203"/>
<path d="M77.1668 47.3692C79.8334 48.9088 79.8334 52.7578 77.1667 54.2974L41.1667 75.082C38.5001 76.6216 35.1667 74.6971 35.1667 71.6179L35.1668 30.0487C35.1668 26.9695 38.5001 25.045 41.1668 26.5846L77.1668 47.3692Z" fill="#FC0203"/>
<rect x="1" y="1" width="99" height="99" stroke="#FC0203" stroke-width="2"/>
<rect x="-1" y="1" width="207" height="99" transform="matrix(-1 0 0 1 306 0)" stroke="#FC0203" stroke-width="2"/>
</svg>
