<svg width="230" height="76" viewBox="0 0 230 76" fill="none" xmlns="http://www.w3.org/2000/svg">
<rect x="-1" y="1" width="156" height="74" transform="matrix(-1 0 0 1 228 0)" stroke="#FC0203" stroke-width="2"/>
<rect x="1" y="1" width="72" height="74" stroke="#FC0203" stroke-width="2"/>
<path d="M101.32 34.264C97.192 34.264 94.984 31.24 94.984 27.568C94.984 23.296 97.792 20.992 101.248 20.992C104.44 20.992 106.72 22.912 107.08 26.176H105.136C104.8 24.064 103.336 22.72 101.2 22.72C98.68 22.72 97 24.568 97 27.568C97 30.808 98.968 32.536 101.344 32.536C103.384 32.536 104.776 31.24 105.136 29.032H107.08C106.72 32.32 104.608 34.264 101.32 34.264ZM115.287 34.264C111.207 34.264 109.047 31.36 109.047 27.52C109.047 23.272 111.831 20.992 115.287 20.992C119.343 20.992 121.527 23.92 121.527 27.52C121.527 31.912 118.863 34.264 115.287 34.264ZM115.287 32.536C117.999 32.536 119.487 30.28 119.487 27.52C119.487 24.664 117.831 22.72 115.287 22.72C112.743 22.72 111.087 24.664 111.087 27.52C111.087 30.784 112.983 32.536 115.287 32.536ZM126.124 34H124.132V21.28H125.716L125.908 23.224C126.772 21.88 128.428 20.992 130.324 20.992C133.06 20.992 134.884 22.768 134.884 25.576V34H132.892V25.648C132.892 23.872 131.74 22.744 129.82 22.744C127.54 22.744 126.148 24.328 126.124 26.272V34ZM140.071 34H138.079V16H140.071V22.912C140.983 21.76 142.543 20.992 144.271 20.992C147.007 20.992 148.831 22.768 148.831 25.576V34H146.839V25.648C146.839 23.872 145.687 22.744 143.887 22.744C141.487 22.744 140.095 24.328 140.071 26.272V34ZM157.568 34.264C153.8 34.264 151.304 31.504 151.304 27.688C151.304 23.344 154.112 20.992 157.328 20.992C160.832 20.992 163.088 23.344 163.16 27.424V27.976H153.296C153.416 30.688 155 32.536 157.568 32.536C159.344 32.536 160.64 31.648 161.168 29.992H163.112C162.536 32.608 160.472 34.264 157.568 34.264ZM153.416 26.32H161.072C160.712 24.088 159.368 22.72 157.328 22.72C155.312 22.72 153.824 24.04 153.416 26.32ZM171.468 34.264C167.34 34.264 165.132 31.24 165.132 27.568C165.132 23.296 167.94 20.992 171.396 20.992C174.588 20.992 176.868 22.912 177.228 26.176H175.284C174.948 24.064 173.484 22.72 171.348 22.72C168.828 22.72 167.148 24.568 167.148 27.568C167.148 30.808 169.116 32.536 171.492 32.536C173.532 32.536 174.924 31.24 175.284 29.032H177.228C176.868 32.32 174.756 34.264 171.468 34.264ZM185.459 34.264C181.691 34.264 179.195 31.504 179.195 27.688C179.195 23.344 182.003 20.992 185.219 20.992C188.723 20.992 190.979 23.344 191.051 27.424V27.976H181.187C181.307 30.688 182.891 32.536 185.459 32.536C187.235 32.536 188.531 31.648 189.059 29.992H191.003C190.427 32.608 188.363 34.264 185.459 34.264ZM181.307 26.32H188.963C188.603 24.088 187.259 22.72 185.219 22.72C183.203 22.72 181.715 24.04 181.307 26.32ZM195.663 34H193.671V21.28H195.255L195.495 23.704C196.311 22.072 197.799 21.208 199.911 21.208H200.343V23.176H199.911C197.223 23.176 195.663 24.712 195.663 27.328V34ZM97.672 62.8H95.68V45.28H97.264L97.48 47.584C98.392 46 100.072 44.992 102.136 44.992C105.496 44.992 107.848 47.68 107.848 51.568C107.848 55.528 105.496 58.264 102.136 58.264C100.192 58.264 98.584 57.376 97.672 55.888V62.8ZM101.824 56.536C104.176 56.536 105.784 54.496 105.784 51.568C105.784 48.712 104.176 46.72 101.8 46.72C99.4 46.72 97.672 48.664 97.672 51.472C97.672 54.448 99.4 56.536 101.824 56.536ZM112.46 58H110.468V45.28H112.052L112.292 47.704C113.108 46.072 114.596 45.208 116.708 45.208H117.14V47.176H116.708C114.02 47.176 112.46 48.712 112.46 51.328V58ZM124.427 58.264C120.347 58.264 118.187 55.36 118.187 51.52C118.187 47.272 120.971 44.992 124.427 44.992C128.483 44.992 130.667 47.92 130.667 51.52C130.667 55.912 128.003 58.264 124.427 58.264ZM124.427 56.536C127.139 56.536 128.627 54.28 128.627 51.52C128.627 48.664 126.971 46.72 124.427 46.72C121.883 46.72 120.227 48.664 120.227 51.52C120.227 54.784 122.123 56.536 124.427 56.536ZM134.281 43.144C133.417 43.144 132.793 42.52 132.793 41.656C132.793 40.816 133.417 40.192 134.281 40.192C135.121 40.192 135.745 40.816 135.745 41.656C135.745 42.52 135.121 43.144 134.281 43.144ZM131.473 62.8H129.697V61.12H131.473C132.649 61.12 133.273 60.448 133.273 59.176V45.28H135.265V59.176C135.265 61.528 133.945 62.8 131.473 62.8ZM144.139 58.264C140.371 58.264 137.875 55.504 137.875 51.688C137.875 47.344 140.683 44.992 143.899 44.992C147.403 44.992 149.659 47.344 149.731 51.424V51.976H139.867C139.987 54.688 141.571 56.536 144.139 56.536C145.915 56.536 147.211 55.648 147.739 53.992H149.683C149.107 56.608 147.043 58.264 144.139 58.264ZM139.987 50.32H147.643C147.283 48.088 145.939 46.72 143.899 46.72C141.883 46.72 140.395 48.04 139.987 50.32ZM158.647 58H157.231C154.759 58 153.439 56.728 153.439 54.376V46.96H151.087V45.28H153.439V40.936H155.431V45.28H158.863V46.96H155.431V54.376C155.431 55.648 156.055 56.32 157.231 56.32H158.647V58ZM166.497 58.264C162.417 58.264 160.257 55.36 160.257 51.52C160.257 47.272 163.041 44.992 166.497 44.992C170.553 44.992 172.737 47.92 172.737 51.52C172.737 55.912 170.073 58.264 166.497 58.264ZM166.497 56.536C169.209 56.536 170.697 54.28 170.697 51.52C170.697 48.664 169.041 46.72 166.497 46.72C163.953 46.72 162.297 48.664 162.297 51.52C162.297 54.784 164.193 56.536 166.497 56.536ZM180.095 58.264C177.071 58.264 174.839 56.68 174.671 53.992H176.615C176.759 55.648 178.271 56.56 180.191 56.56C181.991 56.56 182.855 55.864 182.855 54.592C182.855 53.392 181.919 53.128 180.599 52.672L178.751 52.048C176.879 51.424 175.007 50.848 175.007 48.544C175.007 46.384 176.687 44.992 179.471 44.992C182.279 44.992 184.223 46.504 184.535 49.336H182.591C182.375 47.56 181.127 46.696 179.399 46.696C177.839 46.696 176.927 47.392 176.927 48.496C176.927 49.816 178.319 50.08 179.375 50.44L181.103 51.016C183.431 51.784 184.823 52.576 184.823 54.688C184.823 56.92 183.191 58.264 180.095 58.264Z" fill="#FC0203"/>
<path d="M47 48V28H27M47 28L27 48" stroke="#FC0203" stroke-width="2" stroke-linecap="round" stroke-linejoin="round"/>
</svg>
