<svg width="404" height="101" viewBox="0 0 404 101" fill="none" xmlns="http://www.w3.org/2000/svg">
<path d="M56.7998 45.291H73.7773V56.8105H56.7998V75H45.0781V56.8105H28V45.291H45.0781V27H56.7998V45.291Z" fill="#FC0203"/>
<path d="M119.88 18.2H140.22V23.204H125.496V29.576H138.06V34.616H125.496V41.996H140.22V47H119.88V18.2ZM145.298 18.2H153.038L163.298 39.44V18.2H168.914V47H161.174L150.914 25.76V47H145.298V18.2ZM180.809 23.132H172.529V18.2H194.633V23.132H186.461V47H180.809V23.132ZM198.243 18.2H211.095C212.919 18.2 214.539 18.572 215.955 19.316C217.371 20.06 218.475 21.092 219.267 22.412C220.059 23.732 220.455 25.244 220.455 26.948C220.455 28.244 220.179 29.468 219.627 30.62C219.099 31.748 218.355 32.72 217.395 33.536C216.435 34.328 215.319 34.916 214.047 35.3L221.895 47H215.487L207.999 35.732H203.859V47H198.243V18.2ZM210.987 30.692C211.707 30.692 212.343 30.536 212.895 30.224C213.471 29.912 213.915 29.468 214.227 28.892C214.539 28.316 214.695 27.668 214.695 26.948C214.695 26.228 214.539 25.592 214.227 25.04C213.915 24.464 213.471 24.02 212.895 23.708C212.343 23.396 211.707 23.24 210.987 23.24H203.859V30.692H210.987ZM225.173 18.2H245.513V23.204H230.789V29.576H243.353V34.616H230.789V41.996H245.513V47H225.173V18.2ZM119.88 54.2H140.22V59.204H125.496V65.576H138.06V70.616H125.496V77.996H140.22V83H119.88V54.2ZM145.298 54.2H153.434L162.11 75.656L170.786 54.2H178.922V83H173.342V62.3L164.882 83H159.302L150.914 62.408V83H145.298V54.2ZM208.994 83.396C206.186 83.396 203.678 82.772 201.47 81.524C199.262 80.276 197.522 78.536 196.25 76.304C195.002 74.048 194.378 71.468 194.378 68.564C194.378 65.684 195.002 63.128 196.25 60.896C197.498 58.64 199.226 56.9 201.434 55.676C203.642 54.428 206.138 53.804 208.922 53.804C211.37 53.804 213.602 54.308 215.618 55.316C217.658 56.324 219.338 57.728 220.658 59.528C222.002 61.304 222.902 63.344 223.358 65.648H217.454C217.094 64.352 216.494 63.188 215.654 62.156C214.838 61.124 213.854 60.332 212.702 59.78C211.55 59.204 210.302 58.916 208.958 58.916C207.302 58.916 205.802 59.324 204.458 60.14C203.138 60.956 202.094 62.096 201.326 63.56C200.558 65.024 200.174 66.692 200.174 68.564C200.174 70.46 200.558 72.14 201.326 73.604C202.094 75.068 203.15 76.208 204.494 77.024C205.838 77.84 207.35 78.248 209.03 78.248C210.422 78.248 211.706 77.972 212.882 77.42C214.058 76.868 215.042 76.088 215.834 75.08C216.65 74.048 217.226 72.848 217.562 71.48H223.43C223.046 73.856 222.182 75.944 220.838 77.744C219.518 79.544 217.838 80.936 215.798 81.92C213.758 82.904 211.49 83.396 208.994 83.396ZM241.275 83.396C238.371 83.396 235.779 82.772 233.499 81.524C231.243 80.276 229.479 78.536 228.207 76.304C226.935 74.048 226.299 71.468 226.299 68.564C226.299 65.684 226.935 63.128 228.207 60.896C229.479 58.64 231.243 56.9 233.499 55.676C235.779 54.428 238.371 53.804 241.275 53.804C244.179 53.804 246.759 54.428 249.015 55.676C251.295 56.9 253.071 58.64 254.343 60.896C255.615 63.128 256.251 65.684 256.251 68.564C256.251 71.468 255.615 74.048 254.343 76.304C253.071 78.536 251.295 80.276 249.015 81.524C246.759 82.772 244.179 83.396 241.275 83.396ZM241.275 78.284C243.075 78.284 244.671 77.876 246.063 77.06C247.455 76.244 248.535 75.104 249.303 73.64C250.071 72.152 250.455 70.472 250.455 68.6C250.455 66.704 250.071 65.024 249.303 63.56C248.535 62.072 247.455 60.932 246.063 60.14C244.671 59.324 243.075 58.916 241.275 58.916C239.475 58.916 237.879 59.324 236.487 60.14C235.095 60.932 234.015 62.072 233.247 63.56C232.479 65.024 232.095 66.704 232.095 68.6C232.095 70.472 232.479 72.152 233.247 73.64C234.015 75.104 235.095 76.244 236.487 77.06C237.879 77.876 239.475 78.284 241.275 78.284ZM260.575 54.2H268.315L278.575 75.44V54.2H284.191V83H276.451L266.191 61.76V83H260.575V54.2ZM296.086 59.132H287.806V54.2H309.91V59.132H301.738V83H296.086V59.132ZM319.494 54.2H325.11L336.558 83H330.762L328.062 75.944H316.614L313.914 83H308.118L319.494 54.2ZM326.154 71.012L322.338 61.04L318.486 71.012H326.154ZM343.055 59.132H334.775V54.2H356.879V59.132H348.707V83H343.055V59.132ZM372.619 83.396C369.715 83.396 367.123 82.772 364.843 81.524C362.587 80.276 360.823 78.536 359.551 76.304C358.279 74.048 357.643 71.468 357.643 68.564C357.643 65.684 358.279 63.128 359.551 60.896C360.823 58.64 362.587 56.9 364.843 55.676C367.123 54.428 369.715 53.804 372.619 53.804C375.523 53.804 378.103 54.428 380.359 55.676C382.639 56.9 384.415 58.64 385.687 60.896C386.959 63.128 387.595 65.684 387.595 68.564C387.595 71.468 386.959 74.048 385.687 76.304C384.415 78.536 382.639 80.276 380.359 81.524C378.103 82.772 375.523 83.396 372.619 83.396ZM372.619 78.284C374.419 78.284 376.015 77.876 377.407 77.06C378.799 76.244 379.879 75.104 380.647 73.64C381.415 72.152 381.799 70.472 381.799 68.6C381.799 66.704 381.415 65.024 380.647 63.56C379.879 62.072 378.799 60.932 377.407 60.14C376.015 59.324 374.419 58.916 372.619 58.916C370.819 58.916 369.223 59.324 367.831 60.14C366.439 60.932 365.359 62.072 364.591 63.56C363.823 65.024 363.439 66.704 363.439 68.6C363.439 70.472 363.823 72.152 364.591 73.64C365.359 75.104 366.439 76.244 367.831 77.06C369.223 77.876 370.819 78.284 372.619 78.284Z" fill="#FC0203"/>
<rect x="1" y="1" width="99" height="99" stroke="#FC0203" stroke-width="2"/>
<rect x="-1" y="1" width="303" height="99" transform="matrix(-1 0 0 1 402 0)" stroke="#FC0203" stroke-width="2"/>
</svg>
