<svg width="144" height="223" viewBox="0 0 144 223" fill="none" xmlns="http://www.w3.org/2000/svg">
<path d="M141.345 135.545C127.632 91.0145 56.2448 85.3427 45.0542 40.8621C43.9376 36.4323 41.0096 24.7574 47.3949 15.6162C52.4898 8.32147 62.7375 3.87507 72.8861 5.80433C86.649 8.42083 92.0169 21.2135 92.3725 22.0995C95.6561 30.5783 98.6502 36.5648 99.9818 37.7737C100.627 38.3533 101.322 38.7507 101.322 38.7507C102.86 39.5291 104.332 39.115 110.552 42.3526C114.539 44.4309 115.945 45.648 119.568 46.6996C122.52 47.5607 125.002 48.2397 127.714 47.1384C127.996 47.0225 132.015 45.3334 132.752 41.8143C133.438 38.5686 130.725 36.6559 127.243 30.1891C123.587 23.3912 125.275 23.0683 122.917 20.1206C119.162 15.4258 114.729 16.0385 104.076 11.6915C97.0787 8.84311 97.2441 7.86607 91.4627 5.38205C90.8341 5.1088 79.5111 0.356041 66.2444 0.0331179C65.682 0.0165577 64.7805 0 63.5977 0C53.7387 0.0662406 34.9635 4.07379 23.2766 15.0118C11.292 26.2313 6.32108 45.1761 8.87682 60.4611C16.8749 108.328 97.7404 114.687 108.501 166.065C109.618 171.406 110.618 180.299 106.888 189.473C100.784 204.468 83.0511 217.724 62.8203 215.721C39.1569 213.377 25.8985 191.51 23.715 175.099C22.5405 166.264 23.5496 150.954 32.8048 145.456C36.8493 143.055 44.1609 141.523 47.6182 145.034C49.4378 146.888 49.9671 150.002 49.4543 152.511C49.2393 153.554 48.5528 156.899 45.5256 158.067C45.5091 158.067 45.5008 158.075 45.4843 158.083C45.2775 158.158 42.4736 159.184 39.6449 158.191C35.8816 156.866 34.6575 152.85 34.5583 152.519C34.3184 153.504 33.5327 157.263 35.5508 161.296C37.511 165.212 40.836 166.835 41.7871 167.257H41.8202C43.4082 168.052 46.5926 169.361 50.7115 169.162C51.4228 169.129 58.966 168.648 63.7714 162.546C69.4453 155.334 66.6828 146.11 65.9467 143.626C62.6135 132.365 52.3492 127.612 49.719 126.519C41.3736 123.034 33.7808 124.491 31.713 124.946C14.4101 128.697 2.87208 146.243 0.490031 162.132C-1.18071 173.31 1.90438 182.162 2.54951 183.933C11.4243 208.327 42.4736 222.891 69.2964 222.494C76.4922 222.328 90.6439 221.028 105.879 212.707C106.02 212.632 106.16 212.549 106.301 212.475C125.473 201.852 138.674 182.965 142.52 161.37C144.521 150.151 143.231 141.68 141.345 135.553V135.545Z" fill="#FC0203"/>
</svg>
