<svg width="132" height="43" viewBox="0 0 132 43" fill="none" xmlns="http://www.w3.org/2000/svg">
<rect x="42" y="1" width="89" height="41" stroke="#FC0203" stroke-width="2"/>
<rect x="1" y="1" width="41" height="41" stroke="#FC0203" stroke-width="2"/>
<path d="M63.544 29.264C59.32 29.264 56.416 27.08 56.2 23.912H58.312C58.552 26.072 60.592 27.44 63.544 27.44C66.112 27.44 67.456 26.384 67.456 24.632C67.456 22.928 65.968 22.28 64.36 21.776L61.456 20.864C60.112 20.432 56.728 19.712 56.728 16.424C56.728 13.712 58.96 11.936 62.44 11.936C66.28 11.936 68.656 13.88 68.92 17.456H66.832C66.664 15.08 65.008 13.76 62.344 13.76C60.232 13.76 58.744 14.72 58.744 16.328C58.744 18.176 60.664 18.56 62.104 19.016L64.816 19.856C66.952 20.528 69.52 21.368 69.52 24.536C69.52 27.488 67.264 29.264 63.544 29.264ZM77.8591 29.264C73.7311 29.264 71.5231 26.24 71.5231 22.568C71.5231 18.296 74.3311 15.992 77.7871 15.992C80.9791 15.992 83.2591 17.912 83.6191 21.176H81.6751C81.3391 19.064 79.8751 17.72 77.7391 17.72C75.2191 17.72 73.5391 19.568 73.5391 22.568C73.5391 25.808 75.5071 27.536 77.8831 27.536C79.9231 27.536 81.3151 26.24 81.6751 24.032H83.6191C83.2591 27.32 81.1471 29.264 77.8591 29.264ZM88.2256 29H86.2336V16.28H87.8176L88.0576 18.704C88.8736 17.072 90.3616 16.208 92.4736 16.208H92.9056V18.176H92.4736C89.7856 18.176 88.2256 19.712 88.2256 22.328V29ZM100.193 29.264C96.1128 29.264 93.9528 26.36 93.9528 22.52C93.9528 18.272 96.7368 15.992 100.193 15.992C104.249 15.992 106.433 18.92 106.433 22.52C106.433 26.912 103.769 29.264 100.193 29.264ZM100.193 27.536C102.905 27.536 104.393 25.28 104.393 22.52C104.393 19.664 102.737 17.72 100.193 17.72C97.6488 17.72 95.9928 19.664 95.9928 22.52C95.9928 25.784 97.8888 27.536 100.193 27.536ZM111.102 29H109.11V11H111.102V29ZM116.493 29H114.501V11H116.493V29Z" fill="#FC0203"/>
<path d="M22 14V28M15 21L22 28L29 21" stroke="#FC0203" stroke-width="2" stroke-linecap="round" stroke-linejoin="round"/>
</svg>
