<?xml version="1.0" encoding="UTF-8"?>
<svg id="Layer_2" data-name="Layer 2" xmlns="http://www.w3.org/2000/svg" viewBox="0 0 816.72 224.01">
  <defs>
    <style>
      .cls-1 {
        fill: #fc0203;
      }
    </style>
  </defs>
  <g id="Layer_1-2" data-name="Layer 1">
    <g>
      <path class="cls-1" d="M164.85,61.42h41.24v30.93c6.3-21.19,23.2-33.79,45.82-33.79,29.5,0,48.11,20.62,48.11,52.69v101.95h-41.24v-102.24c0-19.47-10.31-32.07-26.63-32.07s-26.06,12.89-26.06,32.36v101.95h-41.24V61.42Z"/>
      <path class="cls-1" d="M320.92,170.24c0-36.94,40.09-37.23,65.58-53.55,12.6-7.73,20.91-15.18,20.91-30.36,0-14.03-8.31-22.62-20.33-22.62-20.33,0-36.37,27.49-51.83,60.14v-57.28c8.31-1.72,28.92-6.87,51.55-6.87,43.53,0,59.85,20.05,59.85,55.27v98.23h-40.38v-35.23c-3.72,19.76-16.32,37.23-40.38,37.23-25.49,0-44.96-19.19-44.96-44.96ZM381.91,200.02c12.6,0,23.48-14.89,23.48-39.52v-54.7c-4.3,5.73-10.6,9.74-17.76,14.61-15.18,9.74-24.92,23.48-24.92,47.54,0,21.19,7.45,32.07,19.19,32.07Z"/>
      <path class="cls-1" d="M472.69,30.58c0-14.32,11.74-22.62,24.91-22.62s24.92,8.31,24.92,22.62-11.74,22.91-24.92,22.91-24.91-8.88-24.91-22.91ZM476.41,61.42h41.24v151.78h-41.24V61.42Z"/>
      <path class="cls-1" d="M547.26,10.82h41.24v108.16c11.74,1.72,22.05,4.01,31.21,6.87,10.6-5.73,20.33-29.5,6.59-64.44h41.24c5.15,18.33,0,56.42-44.96,65.29,40.09,13.75,53.84,40.67,53.84,82.19v4.3h-44.68c.86-6.3,1.43-12.31,1.43-17.76,0-37.8-11.46-68.73-44.68-73.03v90.78h-41.24V10.82Z"/>
      <path class="cls-1" d="M685.84,135.02c0-46.11,28.07-76.46,68.45-76.46,31.79,0,58.42,19.76,59.85,52.41h-88.2c-.29,2.58-.29,5.15-.29,7.73,0,46.11,23.2,70.74,50.98,70.74,16.32,0,30.36-8.59,40.09-22.34-9.74,30.93-31.5,48.97-59.85,48.97-36.94,0-71.02-30.07-71.02-81.05ZM726.23,107.52h49.54c1.72-24.63-6.01-45.53-21.48-45.53s-25.78,18.61-28.06,45.53Z"/>
      <path class="cls-1" d="M142.46,136.47c-13.82-44.83-85.77-50.55-97.05-95.33-1.12-4.46-4.08-16.22,2.36-25.41,5.14-7.34,15.46-11.82,25.69-9.88,13.87,2.63,19.28,15.51,19.64,16.41,3.31,8.54,6.33,14.56,7.67,15.78.65.59,1.35.98,1.35.98,1.55.78,3.03.36,9.3,3.62,4.02,2.09,5.44,3.32,9.09,4.38,2.97.86,5.47,1.55,8.21.44.28-.11,4.33-1.82,5.08-5.36.69-3.27-2.04-5.2-5.55-11.71-3.69-6.85-1.98-7.17-4.36-10.14-3.78-4.73-8.26-4.11-18.99-8.48-7.05-2.87-6.89-3.85-12.71-6.35-.63-.27-12.05-5.06-25.42-5.39-.57-.01-1.48-.04-2.66-.03-9.94.06-28.86,4.1-40.64,15.12-12.08,11.29-17.09,30.37-14.51,45.76,8.06,48.19,89.57,54.6,100.41,106.32,1.13,5.38,2.14,14.33-1.63,23.57-6.15,15.1-24.03,28.45-44.42,26.43-23.85-2.36-37.21-24.38-39.42-40.9-1.19-8.89-.17-24.31,9.17-29.84,4.08-2.41,11.45-3.96,14.93-.42,1.84,1.86,2.37,5,1.85,7.53-.22,1.05-.91,4.41-3.96,5.6-.02,0-.03.01-.04.02-.21.08-3.04,1.11-5.88.11-3.79-1.34-5.03-5.38-5.12-5.71-.24.99-1.04,4.78,1,8.84,1.97,3.94,5.33,5.57,6.28,6h.03c1.6.8,4.81,2.12,8.96,1.92.72-.03,8.32-.52,13.16-6.66,5.72-7.26,2.94-16.55,2.2-19.05-3.36-11.34-13.71-16.12-16.36-17.23-8.41-3.51-16.06-2.04-18.15-1.59-17.44,3.77-29.07,21.44-31.47,37.44-1.69,11.25,1.42,20.16,2.07,21.95,8.94,24.56,40.24,39.22,67.27,38.82,7.25-.17,21.52-1.48,36.87-9.85.14-.08.28-.16.43-.23,19.32-10.7,32.63-29.71,36.51-51.45,2.02-11.3.72-19.82-1.18-25.99Z"/>
    </g>
  </g>
</svg>