<svg width="209" height="324" viewBox="0 0 209 324" fill="none" xmlns="http://www.w3.org/2000/svg">
<path d="M205.822 197.376C185.853 132.533 81.9019 124.273 65.6065 59.5022C63.9805 53.0516 59.717 36.051 69.0149 22.7398C76.434 12.1175 91.3565 5.64276 106.134 8.45208C126.176 12.2621 133.992 30.8905 134.51 32.1806C139.291 44.5272 143.651 53.2445 145.59 55.0049C146.53 55.8489 147.542 56.4276 147.542 56.4276C149.782 57.561 151.926 56.9581 160.983 61.6725C166.788 64.6988 168.835 66.4712 174.111 68.0025C178.41 69.2564 182.023 70.2451 185.974 68.6415C186.383 68.4727 192.237 66.0131 193.309 60.8888C194.308 56.1623 190.358 53.3771 185.287 43.9605C179.964 34.0615 182.421 33.5913 178.988 29.2989C173.52 22.4625 167.065 23.3548 151.552 17.0247C141.363 12.8771 141.604 11.4543 133.185 7.83717C132.27 7.43928 115.782 0.518455 96.4631 0.0482252C95.6441 0.0241109 94.3313 0 92.609 0C78.2526 0.0964574 50.9128 5.93213 33.8947 21.8597C16.443 38.1971 9.20456 65.784 12.9261 88.0415C24.5727 157.744 142.327 167.004 157.996 241.819C159.622 249.596 161.079 262.545 155.647 275.904C146.759 297.74 120.936 317.044 91.4769 314.126C57.0191 310.714 37.7126 278.87 34.533 254.973C32.8228 242.108 34.2921 219.814 47.7693 211.808C53.6588 208.312 64.3057 206.081 69.3401 211.194C71.9898 213.894 72.7606 218.428 72.0138 222.081C71.7007 223.6 70.701 228.471 66.293 230.172C66.2689 230.172 66.2568 230.184 66.2328 230.196C65.9317 230.304 61.8487 231.799 57.7297 230.352C52.2497 228.423 50.4672 222.576 50.3227 222.093C49.9734 223.528 48.8292 229.002 51.7679 234.874C54.6224 240.577 59.464 242.94 60.8491 243.555H60.8973C63.2097 244.713 67.8466 246.618 73.8445 246.328C74.8803 246.28 85.8644 245.581 92.862 236.694C101.124 226.193 97.1014 212.761 96.0295 209.144C91.1758 192.746 76.2292 185.825 72.3993 184.234C60.2469 179.158 49.1905 181.28 46.1795 181.943C20.9836 187.405 4.18223 212.954 0.713568 236.092C-1.71931 252.369 2.77309 265.258 3.71252 267.838C16.6357 303.359 61.8487 324.567 100.907 323.988C111.386 323.747 131.993 321.854 154.178 309.737C154.383 309.628 154.587 309.508 154.792 309.399C182.71 293.93 201.932 266.427 207.533 234.982C210.447 218.645 208.568 206.31 205.822 197.388V197.376Z" fill="#FC0203"/>
</svg>
